<svg xmlns="http://www.w3.org/2000/svg" xmlns:xlink="http://www.w3.org/1999/xlink" width="24" height="24" preserveAspectRatio="xMidYMid meet" viewBox="0 0 24 24" style="-ms-transform: rotate(360deg); -webkit-transform: rotate(360deg); transform: rotate(360deg);"><path d="M8 12h8v2H8v-2m2 8H6V4h7v5h5v3.1l2-2V8l-6-6H6a2 2 0 0 0-2 2v16a2 2 0 0 0 2 2h4v-2m-2-2h4.1l.9-.9V16H8v2m12.2-5c.1 0 .3.1.4.2l1.3 1.3c.2.2.2.6 0 .8l-1 1l-2.1-2.1l1-1c.1-.1.2-.2.4-.2m0 3.9L14.1 23H12v-2.1l6.1-6.1l2.1 2.1z"/><rect x="0" y="0" width="24" height="24" fill="rgba(0, 0, 0, 0)" /></svg>